Coordinates
version=1
nRows=13
nColumns=26
inDegrees=yes

Units are S.I. units (second, meters, Newtons, ...)
Angles are in degrees.

endheader
time	pelvis_tilt	pelvis_list	pelvis_rotation	pelvis_tx	pelvis_ty	pelvis_tz	hip_flexion_r	hip_adduction_r	hip_rotation_r	knee_angle_r	knee_angle_r_beta	ankle_angle_r	subtalar_angle_r	mtp_angle_r	hip_flexion_l	hip_adduction_l	hip_rotation_l	knee_angle_l	knee_angle_l_beta	ankle_angle_l	subtalar_angle_l	mtp_angle_l	lumbar_extension	lumbar_bending	lumbar_rotation
      0.53333333	      3.64632479	      2.98490914	      1.74898815	      0.55690435	      0.99407220	      0.10634603	     18.91764166	     -4.58842247	     -7.11032306	      7.62871048	      7.62871048	     -0.46090853	      0.00000000	      0.00000000	    -12.43142413	      3.38348760	     -7.81161668	     11.60379672	     11.60379672	     14.41458065	      0.00000000	      0.00000000	    -16.66296647	     -2.71193914	     -1.75278139
      0.54166667	      3.90419771	      2.82842424	      2.10299546	      0.56678158	      0.99325999	      0.10675462	     18.52455307	     -4.42042348	     -7.09125634	      8.53875759	      8.53875759	     -0.82603227	      0.00000000	      0.00000000	    -13.16043348	      3.01963662	     -7.68272930	     11.94496395	     11.94496395	     14.65478033	      0.00000000	      0.00000000	    -16.76745028	     -2.33956575	     -1.92813031
      0.55000000	      4.24497932	      2.59877311	      2.52711142	      0.57684902	      0.99271732	      0.10719022	     17.83534367	     -4.17286375	     -7.02451900	      9.01007121	      9.01007121	     -1.28965536	      0.00000000	      0.00000000	    -13.91751668	      2.53469277	     -7.57798205	     12.38645901	     12.38645901	     14.84986115	      0.00000000	      0.00000000	    -16.94489681	     -1.86879812	     -2.13744305
      0.55833333	      4.62793569	      2.34802776	      3.00333184	      0.58699449	      0.99242247	      0.10763781	     16.98617097	     -3.88890374	     -7.01177566	      9.22593494	      9.22593494	     -2.12138751	      0.00000000	      0.00000000	    -14.62914613	      1.96681997	     -7.50622152	     12.99024100	     12.99024100	     14.98793905	      0.00000000	      0.00000000	    -17.15704174	     -1.36947913	     -2.33145366
      0.56666667	      5.03476729	      2.09689206	      3.51386627	      0.59726101	      0.99231563	      0.10810297	     16.01790097	     -3.63204432	     -7.18938630	      9.25431647	      9.25431647	     -3.17601618	      0.00000000	      0.00000000	    -15.29357116	      1.37117239	     -7.38878824	     13.70968690	     13.70968690	     15.07451561	      0.00000000	      0.00000000	    -17.37393769	     -0.85931178	     -2.54660456
      0.57500000	      5.38848530	      1.90321490	      4.00710338	      0.60745924	      0.99215567	      0.10864140	     15.08836427	     -3.44839244	     -7.45550028	      9.24141442	      9.24141442	     -4.29929754	      0.00000000	      0.00000000	    -15.76945414	      0.80621968	     -7.23168868	     14.66184852	     14.66184852	     15.09878244	      0.00000000	      0.00000000	    -17.54015596	     -0.42688632	     -2.68044799
      0.58333333	      5.67866036	      1.77135343	      4.46879816	      0.61752451	      0.99195127	      0.10932118	     14.25383199	     -3.32643979	     -7.75479541	      9.30406622	      9.30406622	     -5.07986891	      0.00000000	      0.00000000	    -15.98716088	      0.26806054	     -7.13964157	     15.96883715	     15.96883715	     15.18947802	      0.00000000	      0.00000000	    -17.65376323	     -0.07232016	     -2.77802492
      0.59166667	      5.84991347	      1.73925932	      4.81764173	      0.62728377	      0.99173268	      0.11019068	     13.62806360	     -3.30115316	     -8.08837759	      9.51236149	      9.51236149	     -5.69567684	      0.00000000	      0.00000000	    -15.93649931	     -0.12781640	     -7.00676262	     17.47992632	     17.47992632	     15.09369737	      0.00000000	      0.00000000	    -17.67582091	      0.12091504	     -2.69200524
      0.60000000	      5.92113486	      1.70249859	      5.06405181	      0.63683020	      0.99157301	      0.11133077	     13.10863002	     -3.22404031	     -8.24073847	      9.73195208	      9.73195208	     -6.01687122	      0.00000000	      0.00000000	    -15.39984843	     -0.58229610	     -6.98179371	     19.65540689	     19.65540689	     14.97691441	      0.00000000	      0.00000000	    -17.61244337	      0.28408389	     -2.45605842
      0.60833333	      6.03557525	      1.43517851	      5.27371796	      0.64602314	      0.99176368	      0.11250534	     12.88501819	     -2.92565673	     -8.64837327	     10.48657679	     10.48657679	     -6.19658331	      0.00000000	      0.00000000	    -14.80307655	     -1.28232215	     -7.04789460	     21.96727408	     21.96727408	     14.79291336	      0.00000000	      0.00000000	    -17.64223890	      0.71095371	     -2.12517027
      0.61666667	      6.16269525	      0.97264139	      5.46988930	      0.65511616	      0.99202042	      0.11368598	     12.54789043	     -2.39203603	     -8.89602953	     11.14992559	     11.14992559	     -5.97937818	      0.00000000	      0.00000000	    -14.03214521	     -2.21000496	     -7.17366222	     24.54978021	     24.54978021	     14.51466249	      0.00000000	      0.00000000	    -17.68418352	      1.36001080	     -1.68698696
      0.62500000	      6.22368667	      0.41355787	      5.56284688	      0.66426341	      0.99231024	      0.11498330	     12.37934237	     -1.72259594	     -9.13525617	     12.00415224	     12.00415224	     -5.40672005	      0.00000000	      0.00000000	    -13.01129429	     -3.25849169	     -7.29983256	     27.46294207	     27.46294207	     14.10096361	      0.00000000	      0.00000000	    -17.64711402	      2.09011893	     -1.10721051
      0.63333333	      6.47051061	     -0.03773983	      5.69083464	      0.67330355	      0.99312431	      0.11627630	     11.97270035	     -1.15182795	     -9.38410082	     12.83748785	     12.83748785	     -4.68709751	      0.00000000	      0.00000000	    -12.17694958	     -4.25650998	     -7.26426679	     30.32541649	     30.32541649	     13.27407266	      0.00000000	      0.00000000	    -17.85531439	      2.70825517	     -0.58788195
